<svg width="157" height="180" viewBox="0 0 157 180" fill="none" xmlns="http://www.w3.org/2000/svg">
<mask id="path-1-outside-1_74_14" maskUnits="userSpaceOnUse" x="0" y="126.688" width="157" height="54" fill="black">
<rect fill="white" y="126.688" width="157" height="54"/>
<path d="M33.8125 130.938C33.6875 132.896 33.5729 134.833 33.4688 136.75C33.3646 138.667 33.2292 140.604 33.0625 142.562L19.8125 143.25L19.5 147.188H28.8125L28.125 156.875L18.75 157.188L18.4375 161.75H31.6875C31.5625 164.042 31.4271 166.323 31.2812 168.594C31.1562 170.844 31.0417 173.104 30.9375 175.375L4 176L5 130.938H33.8125ZM71.75 169.625C70.7708 170.854 69.5625 171.927 68.125 172.844C66.6875 173.76 65.1458 174.521 63.5 175.125C61.8542 175.729 60.1667 176.177 58.4375 176.469C56.7083 176.781 55.0625 176.938 53.5 176.938C50.4792 176.938 47.6979 176.396 45.1562 175.312C42.6146 174.229 40.4167 172.74 38.5625 170.844C36.7292 168.927 35.2917 166.677 34.25 164.094C33.2083 161.51 32.6875 158.729 32.6875 155.75C32.6875 153.479 32.9479 151.26 33.4688 149.094C33.9896 146.906 34.7292 144.854 35.6875 142.938C36.6667 141 37.8542 139.229 39.25 137.625C40.6458 136 42.2292 134.604 44 133.438C45.7708 132.271 47.7083 131.365 49.8125 130.719C51.9167 130.073 54.1667 129.75 56.5625 129.75C57.4583 129.75 58.4167 129.792 59.4375 129.875C60.4583 129.938 61.4688 130.062 62.4688 130.25C63.4896 130.417 64.4792 130.656 65.4375 130.969C66.3958 131.281 67.2708 131.667 68.0625 132.125L67.1875 144.062C66.0208 143.625 64.8125 143.333 63.5625 143.188C62.3333 143.021 61.125 142.938 59.9375 142.938C58.2708 142.938 56.7083 143.198 55.25 143.719C53.8125 144.219 52.5521 144.948 51.4688 145.906C50.4062 146.865 49.5625 148.031 48.9375 149.406C48.3125 150.781 48 152.333 48 154.062C48 155.146 48.1458 156.198 48.4375 157.219C48.7292 158.219 49.1667 159.115 49.75 159.906C50.3542 160.677 51.0938 161.302 51.9688 161.781C52.8646 162.26 53.8958 162.5 55.0625 162.5C55.8542 162.5 56.6667 162.396 57.5 162.188C58.3542 161.979 59.0833 161.625 59.6875 161.125L59.8125 158.688L52.3125 158.562L52.6875 149.188C55.7917 149.083 58.8958 149 62 148.938C65.1042 148.854 68.2292 148.75 71.375 148.625L71.75 169.625ZM105.5 131.312L105.188 144.562L95.875 144.938L93.5 174.562L80.3125 175.25L80.375 145.625L71.0625 146.125L71.4375 131.375L105.5 131.312ZM120 136.562C119.979 137.542 119.76 138.625 119.344 139.812C118.948 141 118.375 142.177 117.625 143.344C116.875 144.49 115.969 145.583 114.906 146.625C113.865 147.646 112.688 148.5 111.375 149.188C111.375 149.167 111.365 148.927 111.344 148.469C111.323 147.99 111.292 147.417 111.25 146.75C111.229 146.062 111.198 145.333 111.156 144.562C111.115 143.792 111.083 143.104 111.062 142.5C109.771 142.021 108.75 141.219 108 140.094C107.25 138.969 106.875 137.729 106.875 136.375C106.875 135.479 107.042 134.635 107.375 133.844C107.729 133.052 108.198 132.365 108.781 131.781C109.385 131.177 110.083 130.698 110.875 130.344C111.667 129.99 112.521 129.812 113.438 129.812C114.333 129.812 115.177 129.99 115.969 130.344C116.781 130.698 117.479 131.177 118.062 131.781C118.667 132.365 119.146 133.052 119.5 133.844C119.854 134.635 120.021 135.479 120 136.375V136.562ZM153.906 159.375C153.906 162.229 153.406 164.729 152.406 166.875C151.427 169 150.073 170.771 148.344 172.188C146.635 173.604 144.625 174.667 142.312 175.375C140.021 176.083 137.552 176.438 134.906 176.438C133.885 176.438 132.76 176.302 131.531 176.031C130.323 175.76 129.094 175.427 127.844 175.031C126.594 174.615 125.385 174.177 124.219 173.719C123.073 173.24 122.052 172.792 121.156 172.375L122.531 159.5C124.302 160.562 126.26 161.375 128.406 161.938C130.573 162.479 132.698 162.75 134.781 162.75C135.177 162.75 135.656 162.74 136.219 162.719C136.781 162.677 137.312 162.583 137.812 162.438C138.333 162.271 138.771 162.031 139.125 161.719C139.479 161.406 139.656 160.958 139.656 160.375C139.656 159.979 139.531 159.646 139.281 159.375C139.031 159.083 138.708 158.854 138.312 158.688C137.917 158.5 137.469 158.365 136.969 158.281C136.469 158.177 135.979 158.104 135.5 158.062C135.021 158.021 134.573 158 134.156 158C133.74 158 133.406 158 133.156 158C131.365 158 129.729 157.688 128.25 157.062C126.792 156.438 125.531 155.573 124.469 154.469C123.427 153.344 122.615 152.021 122.031 150.5C121.448 148.958 121.156 147.292 121.156 145.5C121.156 143.042 121.646 140.844 122.625 138.906C123.625 136.948 124.948 135.292 126.594 133.938C128.26 132.562 130.167 131.51 132.312 130.781C134.458 130.052 136.677 129.688 138.969 129.688C139.99 129.688 141.042 129.729 142.125 129.812C143.208 129.875 144.281 130 145.344 130.188C146.427 130.375 147.479 130.615 148.5 130.906C149.521 131.198 150.49 131.562 151.406 132L150.219 144.688C148.802 144.208 147.312 143.812 145.75 143.5C144.208 143.167 142.698 143 141.219 143C140.948 143 140.594 143.01 140.156 143.031C139.74 143.031 139.292 143.062 138.812 143.125C138.354 143.167 137.885 143.24 137.406 143.344C136.927 143.448 136.5 143.594 136.125 143.781C135.75 143.948 135.448 144.177 135.219 144.469C134.99 144.76 134.885 145.104 134.906 145.5C134.927 145.958 135.094 146.333 135.406 146.625C135.74 146.896 136.156 147.115 136.656 147.281C137.177 147.427 137.74 147.531 138.344 147.594C138.969 147.656 139.583 147.698 140.188 147.719C140.792 147.719 141.354 147.719 141.875 147.719C142.396 147.698 142.823 147.708 143.156 147.75C144.823 147.854 146.323 148.208 147.656 148.812C148.99 149.417 150.115 150.219 151.031 151.219C151.969 152.219 152.677 153.417 153.156 154.812C153.656 156.188 153.906 157.708 153.906 159.375Z"/>
</mask>
<path d="M33.8125 130.938C33.6875 132.896 33.5729 134.833 33.4688 136.75C33.3646 138.667 33.2292 140.604 33.0625 142.562L19.8125 143.25L19.5 147.188H28.8125L28.125 156.875L18.75 157.188L18.4375 161.75H31.6875C31.5625 164.042 31.4271 166.323 31.2812 168.594C31.1562 170.844 31.0417 173.104 30.9375 175.375L4 176L5 130.938H33.8125ZM71.75 169.625C70.7708 170.854 69.5625 171.927 68.125 172.844C66.6875 173.76 65.1458 174.521 63.5 175.125C61.8542 175.729 60.1667 176.177 58.4375 176.469C56.7083 176.781 55.0625 176.938 53.5 176.938C50.4792 176.938 47.6979 176.396 45.1562 175.312C42.6146 174.229 40.4167 172.74 38.5625 170.844C36.7292 168.927 35.2917 166.677 34.25 164.094C33.2083 161.51 32.6875 158.729 32.6875 155.75C32.6875 153.479 32.9479 151.26 33.4688 149.094C33.9896 146.906 34.7292 144.854 35.6875 142.938C36.6667 141 37.8542 139.229 39.25 137.625C40.6458 136 42.2292 134.604 44 133.438C45.7708 132.271 47.7083 131.365 49.8125 130.719C51.9167 130.073 54.1667 129.75 56.5625 129.75C57.4583 129.75 58.4167 129.792 59.4375 129.875C60.4583 129.938 61.4688 130.062 62.4688 130.25C63.4896 130.417 64.4792 130.656 65.4375 130.969C66.3958 131.281 67.2708 131.667 68.0625 132.125L67.1875 144.062C66.0208 143.625 64.8125 143.333 63.5625 143.188C62.3333 143.021 61.125 142.938 59.9375 142.938C58.2708 142.938 56.7083 143.198 55.25 143.719C53.8125 144.219 52.5521 144.948 51.4688 145.906C50.4062 146.865 49.5625 148.031 48.9375 149.406C48.3125 150.781 48 152.333 48 154.062C48 155.146 48.1458 156.198 48.4375 157.219C48.7292 158.219 49.1667 159.115 49.75 159.906C50.3542 160.677 51.0938 161.302 51.9688 161.781C52.8646 162.26 53.8958 162.5 55.0625 162.5C55.8542 162.5 56.6667 162.396 57.5 162.188C58.3542 161.979 59.0833 161.625 59.6875 161.125L59.8125 158.688L52.3125 158.562L52.6875 149.188C55.7917 149.083 58.8958 149 62 148.938C65.1042 148.854 68.2292 148.75 71.375 148.625L71.75 169.625ZM105.5 131.312L105.188 144.562L95.875 144.938L93.5 174.562L80.3125 175.25L80.375 145.625L71.0625 146.125L71.4375 131.375L105.5 131.312ZM120 136.562C119.979 137.542 119.76 138.625 119.344 139.812C118.948 141 118.375 142.177 117.625 143.344C116.875 144.49 115.969 145.583 114.906 146.625C113.865 147.646 112.688 148.5 111.375 149.188C111.375 149.167 111.365 148.927 111.344 148.469C111.323 147.99 111.292 147.417 111.25 146.75C111.229 146.062 111.198 145.333 111.156 144.562C111.115 143.792 111.083 143.104 111.062 142.5C109.771 142.021 108.75 141.219 108 140.094C107.25 138.969 106.875 137.729 106.875 136.375C106.875 135.479 107.042 134.635 107.375 133.844C107.729 133.052 108.198 132.365 108.781 131.781C109.385 131.177 110.083 130.698 110.875 130.344C111.667 129.99 112.521 129.812 113.438 129.812C114.333 129.812 115.177 129.99 115.969 130.344C116.781 130.698 117.479 131.177 118.062 131.781C118.667 132.365 119.146 133.052 119.5 133.844C119.854 134.635 120.021 135.479 120 136.375V136.562ZM153.906 159.375C153.906 162.229 153.406 164.729 152.406 166.875C151.427 169 150.073 170.771 148.344 172.188C146.635 173.604 144.625 174.667 142.312 175.375C140.021 176.083 137.552 176.438 134.906 176.438C133.885 176.438 132.76 176.302 131.531 176.031C130.323 175.76 129.094 175.427 127.844 175.031C126.594 174.615 125.385 174.177 124.219 173.719C123.073 173.24 122.052 172.792 121.156 172.375L122.531 159.5C124.302 160.562 126.26 161.375 128.406 161.938C130.573 162.479 132.698 162.75 134.781 162.75C135.177 162.75 135.656 162.74 136.219 162.719C136.781 162.677 137.312 162.583 137.812 162.438C138.333 162.271 138.771 162.031 139.125 161.719C139.479 161.406 139.656 160.958 139.656 160.375C139.656 159.979 139.531 159.646 139.281 159.375C139.031 159.083 138.708 158.854 138.312 158.688C137.917 158.5 137.469 158.365 136.969 158.281C136.469 158.177 135.979 158.104 135.5 158.062C135.021 158.021 134.573 158 134.156 158C133.74 158 133.406 158 133.156 158C131.365 158 129.729 157.688 128.25 157.062C126.792 156.438 125.531 155.573 124.469 154.469C123.427 153.344 122.615 152.021 122.031 150.5C121.448 148.958 121.156 147.292 121.156 145.5C121.156 143.042 121.646 140.844 122.625 138.906C123.625 136.948 124.948 135.292 126.594 133.938C128.26 132.562 130.167 131.51 132.312 130.781C134.458 130.052 136.677 129.688 138.969 129.688C139.99 129.688 141.042 129.729 142.125 129.812C143.208 129.875 144.281 130 145.344 130.188C146.427 130.375 147.479 130.615 148.5 130.906C149.521 131.198 150.49 131.562 151.406 132L150.219 144.688C148.802 144.208 147.312 143.812 145.75 143.5C144.208 143.167 142.698 143 141.219 143C140.948 143 140.594 143.01 140.156 143.031C139.74 143.031 139.292 143.062 138.812 143.125C138.354 143.167 137.885 143.24 137.406 143.344C136.927 143.448 136.5 143.594 136.125 143.781C135.75 143.948 135.448 144.177 135.219 144.469C134.99 144.76 134.885 145.104 134.906 145.5C134.927 145.958 135.094 146.333 135.406 146.625C135.74 146.896 136.156 147.115 136.656 147.281C137.177 147.427 137.74 147.531 138.344 147.594C138.969 147.656 139.583 147.698 140.188 147.719C140.792 147.719 141.354 147.719 141.875 147.719C142.396 147.698 142.823 147.708 143.156 147.75C144.823 147.854 146.323 148.208 147.656 148.812C148.99 149.417 150.115 150.219 151.031 151.219C151.969 152.219 152.677 153.417 153.156 154.812C153.656 156.188 153.906 157.708 153.906 159.375Z" stroke="white" stroke-width="6" mask="url(#path-1-outside-1_74_14)"/>
<mask id="path-2-inside-2_74_14" fill="white">
<path fill-rule="evenodd" clip-rule="evenodd" d="M50.314 0.40274C46.1345 -0.984451 41.8047 1.32663 40.63 5.57166C39.4522 9.82794 41.891 14.4188 46.0772 15.8255L54.0901 18.5183C53.6129 18.6722 53.1348 18.8307 52.6556 18.994H12C7.58172 18.994 4 22.5757 4 26.994C4 31.4123 7.58172 34.994 12 34.994H47.7541L8.05091 59.4169C4.34806 61.6946 2.93876 66.685 4.90314 70.5632C6.86752 74.4414 11.4617 75.7388 15.1646 73.4611L49.3305 52.4444C49.0713 62.3644 48.8329 72.243 48.6152 82.0799C48.4329 92.3794 48.2279 102.724 48 113.115H77.3945L78.625 84.6776L87.1016 84.4041L97.6289 113.525L128.391 107.51L112.121 78.5252C115.083 76.6567 117.613 74.6971 119.709 72.6463C121.805 70.5955 123.514 68.3625 124.836 65.9471C126.158 63.5317 127.115 60.8885 127.707 58.0174C128.345 55.1007 128.664 51.8651 128.664 48.3104C128.664 42.6138 127.525 37.6235 125.246 33.3397C123.013 29.0558 120.028 25.4783 116.291 22.6073C112.554 19.7362 108.247 17.5942 103.371 16.1815C100.711 15.3783 97.9951 14.7964 95.2241 14.4355L82.7843 11.1798L50.314 0.40274ZM86.1066 69.8587C99.3848 69.8587 110.149 59.5613 110.149 46.8587C110.149 34.1562 99.3848 23.8587 86.1066 23.8587C72.8284 23.8587 62.0643 34.1562 62.0643 46.8587C62.0643 59.5613 72.8284 69.8587 86.1066 69.8587ZM87.014 62.8587C96.2837 62.8587 103.798 55.9191 103.798 47.3587C103.798 38.7983 96.2837 31.8587 87.014 31.8587C77.7443 31.8587 70.2297 38.7983 70.2297 47.3587C70.2297 55.9191 77.7443 62.8587 87.014 62.8587Z"/>
</mask>
<path d="M40.63 5.57166L37.7387 4.77158L37.7387 4.77158L40.63 5.57166ZM50.314 0.40274L49.3689 3.25001L50.314 0.40274ZM46.0772 15.8255L45.1215 18.6693L45.1215 18.6693L46.0772 15.8255ZM54.0901 18.5183L55.0108 21.3735L63.6827 18.5771L55.0457 15.6746L54.0901 18.5183ZM52.6556 18.994V21.994H53.1526L53.623 21.8337L52.6556 18.994ZM47.7541 34.994L49.3259 37.5492L58.3569 31.994H47.7541V34.994ZM8.05091 59.4169L9.62274 61.9721L9.62274 61.9721L8.05091 59.4169ZM4.90314 70.5632L2.22687 71.9188L2.22688 71.9188L4.90314 70.5632ZM15.1646 73.4611L13.5927 70.9058L13.5927 70.9058L15.1646 73.4611ZM49.3305 52.4444L52.3295 52.5227L52.4741 46.9885L47.7587 49.8891L49.3305 52.4444ZM48.6152 82.0799L45.6159 82.0136L45.6157 82.0268L48.6152 82.0799ZM48 113.115L45.0007 113.049L44.9335 116.115H48V113.115ZM77.3945 113.115V116.115H80.2675L80.3917 113.245L77.3945 113.115ZM78.625 84.6776L78.5283 81.6791L75.7481 81.7688L75.6278 84.5479L78.625 84.6776ZM87.1016 84.4041L89.9229 83.3842L89.1822 81.3355L87.0048 81.4057L87.1016 84.4041ZM97.6289 113.525L94.8076 114.545L95.6816 116.963L98.2047 116.469L97.6289 113.525ZM128.391 107.51L128.966 110.454L133.037 109.658L131.007 106.041L128.391 107.51ZM112.121 78.5252L110.521 75.9878L108.11 77.5084L109.505 79.9937L112.121 78.5252ZM124.836 65.9471L127.468 67.3871L127.468 67.3871L124.836 65.9471ZM127.707 58.0174L124.776 57.3763L124.773 57.3937L124.769 57.4111L127.707 58.0174ZM125.246 33.3397L122.586 34.7264L122.592 34.7375L122.597 34.7485L125.246 33.3397ZM103.371 16.1815L102.504 19.0535L102.52 19.0583L102.536 19.063L103.371 16.1815ZM95.2241 14.4355L94.4646 17.3378L94.6484 17.3859L94.8368 17.4104L95.2241 14.4355ZM82.7843 11.1798L81.8392 14.0271L81.9311 14.0576L82.0247 14.0821L82.7843 11.1798ZM43.5214 6.37175C44.2385 3.7803 46.819 2.40367 49.3689 3.25001L51.259 -2.44453C45.45 -4.37257 39.3709 -1.12703 37.7387 4.77158L43.5214 6.37175ZM47.0328 12.9818C44.3573 12.0827 42.7686 9.09208 43.5214 6.37175L37.7387 4.77158C36.1359 10.5638 39.4247 16.7548 45.1215 18.6693L47.0328 12.9818ZM55.0457 15.6746L47.0328 12.9818L45.1215 18.6693L53.1344 21.362L55.0457 15.6746ZM53.623 21.8337C54.0868 21.6757 54.5494 21.5223 55.0108 21.3735L53.1693 15.6631C52.6765 15.822 52.1828 15.9858 51.6882 16.1542L53.623 21.8337ZM12 21.994H52.6556V15.994H12V21.994ZM7 26.994C7 24.2325 9.23858 21.994 12 21.994V15.994C5.92487 15.994 1 20.9188 1 26.994H7ZM12 31.994C9.23858 31.994 7 29.7554 7 26.994H1C1 33.0691 5.92487 37.994 12 37.994V31.994ZM47.7541 31.994H12V37.994H47.7541V31.994ZM9.62274 61.9721L49.3259 37.5492L46.1823 32.4387L6.47907 56.8616L9.62274 61.9721ZM7.57941 69.2076C6.32032 66.7218 7.24936 63.4321 9.62274 61.9721L6.47907 56.8616C1.44676 59.9572 -0.442794 66.6482 2.22687 71.9188L7.57941 69.2076ZM13.5927 70.9058C11.3843 72.2643 8.751 71.5206 7.57941 69.2076L2.22688 71.9188C4.98405 77.3622 11.5391 79.2133 16.7364 76.0163L13.5927 70.9058ZM47.7587 49.8891L13.5927 70.9058L16.7364 76.0163L50.9023 54.9996L47.7587 49.8891ZM51.6145 82.1463C51.832 72.3133 52.0704 62.4388 52.3295 52.5227L46.3315 52.366C46.0722 62.2901 45.8337 72.1726 45.616 82.0136L51.6145 82.1463ZM50.9993 113.181C51.2272 102.786 51.4324 92.4367 51.6148 82.133L45.6157 82.0268C45.4335 92.322 45.2285 102.663 45.0007 113.049L50.9993 113.181ZM77.3945 110.115H48V116.115H77.3945V110.115ZM75.6278 84.5479L74.3973 112.985L80.3917 113.245L81.6222 84.8073L75.6278 84.5479ZM87.0048 81.4057L78.5283 81.6791L78.7217 87.676L87.1983 87.4026L87.0048 81.4057ZM100.45 112.505L89.9229 83.3842L84.2803 85.424L94.8076 114.545L100.45 112.505ZM127.815 104.565L97.0531 110.581L98.2047 116.469L128.966 110.454L127.815 104.565ZM109.505 79.9937L125.775 108.978L131.007 106.041L114.737 77.0568L109.505 79.9937ZM117.611 70.5018C115.692 72.3792 113.337 74.2113 110.521 75.9878L113.722 81.0626C116.83 79.1022 119.533 77.015 121.807 74.7908L117.611 70.5018ZM122.204 64.5071C121.034 66.6461 119.509 68.6447 117.611 70.5018L121.807 74.7908C124.101 72.5464 125.995 70.0788 127.468 67.3871L122.204 64.5071ZM124.769 57.4111C124.233 60.0095 123.374 62.3693 122.204 64.5071L127.468 67.3871C128.941 64.6942 129.996 61.7675 130.645 58.6237L124.769 57.4111ZM125.664 48.3104C125.664 51.689 125.361 54.7056 124.776 57.3763L130.638 58.6585C131.33 55.4959 131.664 52.0411 131.664 48.3104H125.664ZM122.597 34.7485C124.608 38.5289 125.664 43.0195 125.664 48.3104H131.664C131.664 42.208 130.441 36.7182 127.895 31.9308L122.597 34.7485ZM114.463 24.9862C117.845 27.5843 120.549 30.8199 122.586 34.7264L127.906 31.9529C125.477 27.2917 122.211 23.3724 118.119 20.2283L114.463 24.9862ZM102.536 19.063C107.081 20.3797 111.045 22.3602 114.463 24.9862L118.119 20.2283C114.063 17.1121 109.414 14.8088 104.206 13.3L102.536 19.063ZM94.8368 17.4104C97.4462 17.7502 100.001 18.2979 102.504 19.0535L104.238 13.3095C101.42 12.4588 98.544 11.8425 95.6115 11.4606L94.8368 17.4104ZM82.0247 14.0821L94.4646 17.3378L95.9837 11.5333L83.5438 8.27757L82.0247 14.0821ZM49.3689 3.25001L81.8392 14.0271L83.7293 8.33255L51.259 -2.44453L49.3689 3.25001ZM107.149 46.8587C107.149 57.7805 97.8546 66.8587 86.1066 66.8587V72.8587C100.915 72.8587 113.149 61.342 113.149 46.8587H107.149ZM86.1066 26.8587C97.8546 26.8587 107.149 35.9369 107.149 46.8587H113.149C113.149 32.3754 100.915 20.8587 86.1066 20.8587V26.8587ZM65.0643 46.8587C65.0643 35.9369 74.3586 26.8587 86.1066 26.8587V20.8587C71.2983 20.8587 59.0643 32.3754 59.0643 46.8587H65.0643ZM86.1066 66.8587C74.3586 66.8587 65.0643 57.7805 65.0643 46.8587H59.0643C59.0643 61.342 71.2983 72.8587 86.1066 72.8587V66.8587ZM100.798 47.3587C100.798 54.0419 94.8561 59.8587 87.014 59.8587V65.8587C97.7112 65.8587 106.798 57.7964 106.798 47.3587H100.798ZM87.014 34.8587C94.8561 34.8587 100.798 40.6755 100.798 47.3587H106.798C106.798 36.9211 97.7112 28.8587 87.014 28.8587V34.8587ZM73.2297 47.3587C73.2297 40.6755 79.1718 34.8587 87.014 34.8587V28.8587C76.3168 28.8587 67.2297 36.9211 67.2297 47.3587H73.2297ZM87.014 59.8587C79.1718 59.8587 73.2297 54.0419 73.2297 47.3587H67.2297C67.2297 57.7964 76.3168 65.8587 87.014 65.8587V59.8587Z" fill="white" mask="url(#path-2-inside-2_74_14)"/>
</svg>
